<svg xmlns="http://www.w3.org/2000/svg" viewBox="0 0 171.03 35.48"><defs><style>.cls-1{fill:#231f20;}</style></defs><g id="Layer_2" data-name="Layer 2"><g id="Layer_1-2" data-name="Layer 1"><path class="cls-1" d="M31.08,26a17.25,17.25,0,0,1-.9,2.33l.09.05-.26.69-.17.13a5.29,5.29,0,0,1-1.6,2.15l.05.09a1.61,1.61,0,0,0-.22.78,5.41,5.41,0,0,1-3.87,2.63h0a3.35,3.35,0,0,0-.95.29A8.89,8.89,0,0,0,21,35.3a24.7,24.7,0,0,0-3.49-.14A44.46,44.46,0,0,0,12.57,35l-.26-.19L12.1,35a1.54,1.54,0,0,0-.73.06,2.49,2.49,0,0,0-.95,0l-.22-.18c-.83,0-2,0-3.66-.17l-.21.13c-1,0-2.54,0-4.69,0H.56l-.47-.08L0,34.09l.17-.16a28.49,28.49,0,0,1,3.92,0l.17-.35a7,7,0,0,1-.13-1.89,8.63,8.63,0,0,1,.13-1.81V26.26a4.08,4.08,0,0,0,0-.86V23a41.84,41.84,0,0,0,0-8.39V10.13l0-.21a7.6,7.6,0,0,0,0-1.12c0-.48,0-.83,0-1s0-.8.07-1.46.06-1.14.06-1.46a10.18,10.18,0,0,1,0-1.37V2.19L4.09,2,4,1.64l-.09-.09a4.44,4.44,0,0,1-1.3,0A6.07,6.07,0,0,1,.3,1.38L.13,1.12V.9L.22.69.65.52h.68a3,3,0,0,0,.95,0,22.29,22.29,0,0,0,5,.15l.13.11A4.59,4.59,0,0,0,8.22.65L8.4.78,8.61.65q.35,0,2.07,0h.13l.38-.13A9.05,9.05,0,0,0,13,.65l.3-.13L14,.65a9.36,9.36,0,0,1,2.84,0L17,.52l.35.13.17-.13H18l.17.13.26-.13.6.13.13-.13.17.13L19.5.52a15.79,15.79,0,0,1,3.4.54l.05.15.13-.13a1.06,1.06,0,0,1,.6.25,2.73,2.73,0,0,1,1.08.31h.08l.78.43L25.7,2l.09.17L26,2.07l.35.3h.12a13.45,13.45,0,0,1,1.38,1.76v.09a5.77,5.77,0,0,0,.52,1l0,.13a4.74,4.74,0,0,0,.3.9v.17a3.3,3.3,0,0,1,.17,1.51l.09.13,0,.26V9a7,7,0,0,1-.65,2.41l.05.17-.13.21a2.24,2.24,0,0,1-.82,1.42l0,.18a9.52,9.52,0,0,0-.82.94c-.38.18-.91.46-1.6.86l-.21,0-.52.26-.17.22.09.17.3-.09c.31.12.69.23,1.12.35v.17h.21l.09.13h.26a8.63,8.63,0,0,1,1,.6h.08a6.16,6.16,0,0,1,.69.6l.26,0,1.29,1.34a25.51,25.51,0,0,0,1.08,2.76,6.43,6.43,0,0,1,.64,2.63A9.5,9.5,0,0,1,31,25.64Zm-23,4.72V27.38L8,27.25c0-1.4,0-2.32-.06-2.75A5,5,0,0,0,7.84,23l.21-.13a3.93,3.93,0,0,1-.11-1.44A5,5,0,0,0,7.88,20l.17-.56v-.48a2.61,2.61,0,0,0,0-.69,2.78,2.78,0,0,1,0-.73,1.46,1.46,0,0,1,0-1.29l-.13-.73.13-.22A2.52,2.52,0,0,1,8,13.39a2.46,2.46,0,0,1-.07-.9l.13-.18v-.25l-.13-.22.13-.39-.26-.34.26-.17q0-.74,0-2.67l-.21-.22.21-.73a3.3,3.3,0,0,1,0-2.11c0-.43-.13-1.08-.26-1.94l.09-.08,0-.22L7.75,2.5l-.09,0,.13-.34,0-.43-.18-.13H7.44a3.45,3.45,0,0,0-2.19,0c0,.71,0,2.06-.08,4a29.54,29.54,0,0,0,0,4v0a4.54,4.54,0,0,0,.13,1.29H5.17a11.53,11.53,0,0,0,0,3.27v.34a6.17,6.17,0,0,0,0,1.08v.47A7.42,7.42,0,0,0,5,18.17a7.13,7.13,0,0,0,.21,2.07,6.4,6.4,0,0,0,0,3.61c0,.52,0,1.61-.13,3.27a29.4,29.4,0,0,0,0,3.28V32l0,0,0,.9L5,33l.17.43a1.17,1.17,0,0,1,.68-.09,1.53,1.53,0,0,0,.68,0,3.35,3.35,0,0,0,1.06.09l.12,0,.3-.3Zm14.51-7.13v-.13l0-.61-.22-.47.09-.18A9.44,9.44,0,0,1,22,20.5a15.18,15.18,0,0,1-1-1.68,3,3,0,0,1-.68-.56L19.81,18h-.25l-.09-.26-.3-.13-.17.06-1-.41-.34.09-.05-.13-.56-.21-.08,0a3.19,3.19,0,0,0-1.6-.17l-.12-.09-.65,0-.09,0a1.86,1.86,0,0,0-.86,0l-.21,0c-.32,0-.79.1-1.42.21,0,0,0-.05,0-.08s-.06,0-.17.06a.46.46,0,0,0-.18.37v.13l-.21.3.21.12-.21.26.21.17a1,1,0,0,0-.05.86l-.16.52V20a21.14,21.14,0,0,0-.26,4.73c0,1.66.07,3.33.13,5l.13.17v2c0,.31-.11.78-.17,1.41l.64.3h4.91q1.09-.55,3.15-1.89A7.93,7.93,0,0,1,21.39,30,17.43,17.43,0,0,1,22,28.31V27.8q.12-.3.39-.87l-.09-.21.26-.43A20,20,0,0,0,22.56,23.57ZM21.61,6.72l-.13-.09A4.33,4.33,0,0,0,20.88,5l-.13-.08,0-.22-.08,0,0-.22-.22-.12c-.32-.64-.65-1-1-1.12l-.3-.26V2.84c-.37-.11-.91-.31-1.63-.6l-.17.08-.13-.17-.25,0-.18,0-.3-.21a5.7,5.7,0,0,0-.85-.09l-.26-.13-.47.13-.38-.2c-.09.28-.2.24-.35-.1a7.29,7.29,0,0,1-1.71,0l-.68.26-.05.26.07.09a9.12,9.12,0,0,1,0,1.31l.07.17a2.31,2.31,0,0,0-.18,1.09l.07,0,.19.44,0,0a3.7,3.7,0,0,1-.09,1.07,10.23,10.23,0,0,0-.13,1.12v2.76l-.21.64.21.35v.3c0,.14,0,.95,0,2.41V14l-.06,1.25-.15.26,0,.3.75,0,1.4-.08v0a4.22,4.22,0,0,0,.87,0h0a11.1,11.1,0,0,0,1.72-.43l.05.05c.26-.09.61-.23,1.07-.43a2.92,2.92,0,0,0,1.6-.78h.13a10.82,10.82,0,0,1,1.59-1.33l.3-.65.09,0a2.49,2.49,0,0,1,.43-1l-.05-.17.31-.31v-.25A1.81,1.81,0,0,0,22,9.51a7.46,7.46,0,0,0-.26-1.42A2.81,2.81,0,0,1,21.61,6.72Zm3.62,1.7-.35-.65v-.3l-.08-.09a4.13,4.13,0,0,0-.17-1l-.13,0V6.1l-.22-.22,0-.38L23.8,5V4.87l-.3-.26,0-.22-.29-.33L23,4l-.09-.21a12,12,0,0,0-3-1.91H19.7l-.17-.17h-.26l-.12-.17-.39.22-.29-.22-.13.13.56.26.09.17c1,.46,2,1.66,3.18,3.62a3,3,0,0,0,.35,1.16v.17l.08.22c0,.11,0,.64.13,1.59a10,10,0,0,1-.14,1.89l0,0-.09.22A10.84,10.84,0,0,1,20.36,14l-.12,0-.44.3-.08.26-.17,0-.18.17-.47.22-.3.38,0,.05a16.31,16.31,0,0,0,1.55-.52h.09a22.08,22.08,0,0,0,2.24-1.24l.08-.22.18-.08-.09-.09c.09-.29.46-.59,1.12-.9V12a4.23,4.23,0,0,0,.9-1.33V10.6A21.45,21.45,0,0,0,25.23,8.42Zm.65,16.38-.09-.22,0-.3-.17-.21v-.35a6.56,6.56,0,0,1-.38-1.59,2.29,2.29,0,0,0-.68-1.42l-.08-.52a9.63,9.63,0,0,1-.8-1l-.26,0v0c0-.38-.3-.68-.9-.91L22.39,18l-.48-.22a6.43,6.43,0,0,0-.86-.6h-.47L20.06,17l0-.18a1.61,1.61,0,0,1-1.25-.17h-.13l.05.26.3.13h0a23.36,23.36,0,0,1,2.28,1.25v.17l.6.52a4,4,0,0,0,.82,1.2v.26l.22.47H22.9v.22a15.67,15.67,0,0,1,.48,1.51h-.05l.13,1.42,0,0,.13.65-.13.21,0,.86h0l-.17.65,0,.3a4.35,4.35,0,0,0-.3,1h0l-.13.21,0,.22-.21.47a2,2,0,0,1-.39,1l0,0L21.48,31v.13l-1.37,1.28-.13,0a4.46,4.46,0,0,1-1.34.9l0,.25h.13a6.27,6.27,0,0,1,1.89-.32,2.91,2.91,0,0,1,.69-.37l.09-.08h.21l.3-.3.31,0a3.5,3.5,0,0,0,.86-.82l.21-.09a2.66,2.66,0,0,1,.56-.69l-.08-.08.21-.22,0-.17.61-.52.25-.56v-.08l.44-.91-.09-.26c.09-.43.26-1.07.52-1.93A2,2,0,0,1,25.88,24.8Z"/><path class="cls-1" d="M68.14,20.28l-.09.26,0,.13a18.34,18.34,0,0,1-.47,2.41l0,.21-.51,1.34a6.79,6.79,0,0,1-.5,1.7,5.86,5.86,0,0,1-.75,1.57A3.47,3.47,0,0,1,65.21,29l-.09.34-.21.13A4.27,4.27,0,0,1,63.62,31c-.55.4-1.09.82-1.64,1.25h-.09l-.68.34a2.88,2.88,0,0,1-1.12.78L60,33.5l-.51.25h-.39a4.13,4.13,0,0,1-1.94.91l0,0a9.65,9.65,0,0,1-3.75.68l-.21.13L53,35.3l-.61.13a2.35,2.35,0,0,0-1.16,0,3.45,3.45,0,0,0-.95-.13l-.08,0-.74-.22-.08,0a6.41,6.41,0,0,1-1.55-.43l-.22,0a18.05,18.05,0,0,0-2.24-.69l-.08-.08a12.74,12.74,0,0,1-2.5-1.43l0-.08-1-.82-.09-.17-.26-.09c-.49-.57-1.22-1.45-2.19-2.62v-.22a9.07,9.07,0,0,1-1.51-2.32,16.08,16.08,0,0,1-1-2.63l0,0c-.06-.2-.13-.49-.21-.86a23.54,23.54,0,0,1-.48-4.48c0-.32,0-.88.13-1.68a13.59,13.59,0,0,0,0-1.72c.14-.66.38-1.62.73-2.89A9.53,9.53,0,0,1,38.65,7.1q.16-1.25,2.19-3c.29-.26,1.34-1,3.14-2.36h.18a5.7,5.7,0,0,1,1.55-.65L45.79,1C46.28.85,47,.69,48,.52l.3-.22.13,0c.34-.05.86-.11,1.55-.17l.21-.08h.65L51,0A8.66,8.66,0,0,0,52.9.09L53.07,0l.51,0,.22.13.39-.08a4.68,4.68,0,0,0,.56.21c-.12,0,.07,0,.56,0a3.94,3.94,0,0,1,1,.19,2.79,2.79,0,0,0,1,.15,11.35,11.35,0,0,0,1.59.61q4,1.29,7.58,7.27h0A6.14,6.14,0,0,1,67,9.86l.13.13c.2.69.46,1.72.78,3.1l0,.17.17.56q0,.25.21,1.89l-.13.31a8.67,8.67,0,0,1,0,2.19A6.63,6.63,0,0,0,68.14,20.28Zm-22,13.13c-.23-.17-.58-.4-1-.69a1.06,1.06,0,0,1-.94-.56,6.15,6.15,0,0,1-1.94-2.24l-.17-.13a4.78,4.78,0,0,0-.74-1,3.37,3.37,0,0,0-.9-1.81v-.08l-.34-.35a29.59,29.59,0,0,1-.91-3.18l-.08-.05a15,15,0,0,1-.52-2.71,1.05,1.05,0,0,0,0-.34A12.45,12.45,0,0,0,38.43,19a3.51,3.51,0,0,1-.09-1.25l0-.13q0-1.59.09-2.07a5.21,5.21,0,0,1,.38-2l0-.13.09-.9.08-.17a7.54,7.54,0,0,1,.74-2.46A4.4,4.4,0,0,1,41,6.85a9.71,9.71,0,0,1,1.55-2.46,5.68,5.68,0,0,0,1.27-1.14A8.13,8.13,0,0,1,45,2.11q-.48.14-1.32.45A7.79,7.79,0,0,0,41.49,4.2a6.45,6.45,0,0,0-1.64,2A4.72,4.72,0,0,0,39,7.79a8,8,0,0,0-1,2.72c-.58,2.06-.86,3.11-.86,3.14v.17a6.26,6.26,0,0,0-.2.84,13.74,13.74,0,0,0-.19,2.09l-.13.26a24.85,24.85,0,0,0,.21,3.53c.2,1.35.31,2,.31,1.89l.08.22a1.48,1.48,0,0,0,.35,1.24q.12.34.3,1.08a.87.87,0,0,1,.3.78l.26.51.21.13-.08.17.17.09,1.81,2.76.21.08.09.26a10.19,10.19,0,0,0,1.12,1L42,31h.13l.13.17.52.22v.25l.56.26,0,.22a3.48,3.48,0,0,0,1.51.77A3.42,3.42,0,0,0,46.14,33.41ZM39.59,19.59h-.08v.13Zm1.16,6.72,0-.13v.13ZM41,9.13l0-.05v.13Zm.26-.05-.08.31h.08Zm.48,19-.13.08,0,.26A.72.72,0,0,0,41.75,28Zm18-19a4.7,4.7,0,0,0-.64-1.85,2.72,2.72,0,0,0-.73-1.59,4.8,4.8,0,0,1-1-1.51l-.48-.51-.08-.05-.65-.73-.13,0-.26-.17q-.65-1.5-3.57-1.5a5.49,5.49,0,0,0-2.37.43h-.21l-1.9.86-.08.08a2.59,2.59,0,0,0-1.51,1.47l-.13.08-.13.26a.69.69,0,0,0-.52.52,11.88,11.88,0,0,0-1.07,1.94,4.7,4.7,0,0,0-.69,1.89,3.53,3.53,0,0,0-.47,1.81l-.09.08,0,.91h-.13q-.13,1.2-.3,2.37A7.63,7.63,0,0,1,42,16.23l.22.56h.17l-.09.6a4.5,4.5,0,0,0-.47.69v.09l.3-.3h.09l.08.13a10.44,10.44,0,0,0,.09,2.54l.17.21a1.77,1.77,0,0,0,.09,1.42,2.3,2.3,0,0,0,.26,1.29l0,.18,1,3.44.17.13a11.81,11.81,0,0,0,1.08,2.28c.6,1.09,1.09,1.71,1.46,1.85l0,.09a12.33,12.33,0,0,1,1.08,1h.13l.17.17.13,0,.17.08.05.26a12.82,12.82,0,0,0,3.14.82,1.46,1.46,0,0,1,1.38-.09l.13-.17.17.09a2.75,2.75,0,0,0,1.29-.43h0a18.74,18.74,0,0,0,5-4.74l0-.17C60.69,27,61.25,24,61.25,19.33a28,28,0,0,0-.6-6.72A28.46,28.46,0,0,0,59.78,9.08ZM53.2,34.4v-.13h-.05l0,.09v0ZM54.7,34v0l0,0h0l-.09,0ZM64.35,15.2a4.06,4.06,0,0,1-.43-1.55,10.54,10.54,0,0,0-.35-1.77l0-.13-.13-.25v-.22l-1-2.37-.13-.08L60.56,5.3l-.22-.13a13.53,13.53,0,0,0-2.19-2.29h-.09L56.9,2.11h-.13l-.26-.22-.3,0-.3-.21-.22,0a6.11,6.11,0,0,1,.91.82,1.39,1.39,0,0,1,.82.65c.34,0,1,.94,1.93,2.67v.08A4.93,4.93,0,0,1,60,7.28a11.36,11.36,0,0,0,.56,1.55,4.25,4.25,0,0,0,.3,1.42,10.89,10.89,0,0,0,.43,2.39,8.57,8.57,0,0,1,.39,2.47l.09.26,0,.09c0,.34,0,.81.08,1.42S62,18.07,62,18.3a22.52,22.52,0,0,1-.08,3.27,10.82,10.82,0,0,1-.61,3.14l.05.09A7.79,7.79,0,0,1,59.78,29q-.6.81-2.92,3.48l-.26.13-.26.3-.56.22,0,.13a6.77,6.77,0,0,0,1.16-.35l.13-.26.17.13.69-.34H58a1.12,1.12,0,0,1,.73-.43,4.89,4.89,0,0,1,.86-.65l0-.13a9.75,9.75,0,0,0,3-3.78l.08-.05.35-.73v-.26a4.7,4.7,0,0,0,.73-2.24,9.3,9.3,0,0,0,.39-1.68l-.05-.13a7.41,7.41,0,0,0,.39-2.54c0-.4,0-1.17-.13-2.32A20.64,20.64,0,0,1,64.35,15.2Zm-.3-6-.13,0L63.83,9l0,.08.3.3Zm2.54,5.73v-.05l0,0,0,.09Z"/><path class="cls-1" d="M104.2,26a17.25,17.25,0,0,1-.9,2.33l.08.05-.25.69-.18.13a5.17,5.17,0,0,1-1.59,2.15l0,.09a1.67,1.67,0,0,0-.21.78,5.41,5.41,0,0,1-3.88,2.63h0a3.35,3.35,0,0,0-1,.29,8.84,8.84,0,0,0-2.28.18,24.7,24.7,0,0,0-3.49-.14,44.46,44.46,0,0,0-5-.14l-.26-.19-.21.16a1.58,1.58,0,0,0-.74.06,2.43,2.43,0,0,0-.94,0l-.22-.18c-.83,0-2,0-3.66-.17l-.21.13c-1,0-2.54,0-4.7,0H73.68l-.48-.08-.08-.66.17-.16a28.49,28.49,0,0,1,3.92,0l.17-.35a7,7,0,0,1-.13-1.89,8,8,0,0,1,.13-1.81V26.26a4.08,4.08,0,0,0,0-.86V23a41.84,41.84,0,0,0,0-8.39V10.13l0-.21a7.6,7.6,0,0,0,0-1.12c0-.48,0-.83,0-1s0-.8.07-1.46.06-1.14.06-1.46a10.18,10.18,0,0,1,0-1.37V2.19L77.21,2l-.08-.38L77,1.55a4.44,4.44,0,0,1-1.3,0,6.07,6.07,0,0,1-2.32-.17l-.17-.26V.9l.08-.21.43-.17h.69a3,3,0,0,0,1,0,22.29,22.29,0,0,0,4.95.15l.13.11a4.59,4.59,0,0,0,.86-.13l.17.13.22-.13q.34,0,2.07,0h.12l.39-.13a9.05,9.05,0,0,0,1.81.13l.3-.13.73.13A9.47,9.47,0,0,1,90,.65l.08-.13.35.13L90.6.52h.51l.18.13.26-.13.6.13.13-.13.17.13.17-.13a15.79,15.79,0,0,1,3.4.54l0,.15.13-.13a1.06,1.06,0,0,1,.6.25,2.73,2.73,0,0,1,1.07.31H98l.78.43L98.82,2l.09.17.17-.08.34.3h.13a13.45,13.45,0,0,1,1.38,1.76v.09a5.12,5.12,0,0,0,.52,1l0,.13a5.55,5.55,0,0,0,.31.9v.17a3.3,3.3,0,0,1,.17,1.51L102,8l.05.26V9a7,7,0,0,1-.65,2.41l0,.17-.12.21a2.24,2.24,0,0,1-.82,1.42l0,.18a11.35,11.35,0,0,0-.81.94c-.38.18-.91.46-1.6.86l-.21,0-.52.26-.17.22.09.17.3-.09c.31.12.69.23,1.12.35v.17h.21l.09.13h.26a8.63,8.63,0,0,1,1,.6h.08a6.16,6.16,0,0,1,.69.6l.26,0,1.29,1.34a23.49,23.49,0,0,0,1.08,2.76,6.43,6.43,0,0,1,.64,2.63,8.43,8.43,0,0,1-.13,1.43Zm-23,4.72V27.38l-.06-.13c0-1.4,0-2.32-.06-2.75A4.84,4.84,0,0,0,81,23l.22-.13a3.89,3.89,0,0,1-.12-1.44A5.13,5.13,0,0,0,81,20l.17-.56v-.48a2.61,2.61,0,0,0,0-.69,2.78,2.78,0,0,1,0-.73,1.46,1.46,0,0,1,0-1.29L81,15.5l.13-.22a2.56,2.56,0,0,1-.07-1.89,2.7,2.7,0,0,1-.06-.9l.13-.18v-.25L81,11.84l.13-.39-.26-.34.26-.17q0-.74,0-2.67L81,8.05l.22-.73a3.3,3.3,0,0,1,0-2.11c0-.43-.13-1.08-.26-1.94L81,3.19,81,3l-.17-.47-.09,0,.13-.34,0-.43-.18-.13h-.13a3.46,3.46,0,0,0-2.19,0c0,.71,0,2.06-.09,4a33.22,33.22,0,0,0,0,4v0a5.44,5.44,0,0,0,.13,1.29h-.13a12.35,12.35,0,0,0,0,3.27v.34a9.25,9.25,0,0,0,0,1.08v.47a8,8,0,0,0-.12,2.07,7.13,7.13,0,0,0,.21,2.07,6.42,6.42,0,0,0,0,3.61c0,.52,0,1.61-.13,3.27,0,1.38,0,2.47,0,3.28V32l0,0,0,.9-.07.13.17.43a1.15,1.15,0,0,1,.67-.09,1.5,1.5,0,0,0,.68,0,3.37,3.37,0,0,0,1.06.09l.13,0,.3-.3Zm14.51-7.13v-.13l0-.61-.22-.47.09-.18a9.44,9.44,0,0,1-.39-1.68,15.18,15.18,0,0,1-1-1.68,2.89,2.89,0,0,1-.69-.56L92.93,18h-.26l-.08-.26-.3-.13-.17.06-1-.41-.34.09,0-.13-.56-.21-.08,0a3.19,3.19,0,0,0-1.6-.17l-.13-.09-.64,0-.09,0a1.86,1.86,0,0,0-.86,0l-.22,0c-.31,0-.79.1-1.42.21,0,0,0-.05,0-.08s-.06,0-.18.06a.48.48,0,0,0-.17.37v.13l-.21.3.21.12-.21.26.21.17a1,1,0,0,0-.05.86l-.16.52V20a21.14,21.14,0,0,0-.26,4.73c0,1.66.07,3.33.13,5l.13.17v2q-.07.46-.18,1.41l.65.3H90q1.09-.55,3.15-1.89A7.93,7.93,0,0,1,94.51,30a15,15,0,0,1,.61-1.65V27.8q.12-.3.39-.87l-.09-.21.26-.43A20,20,0,0,0,95.68,23.57Zm-1-16.85-.13-.09A4.33,4.33,0,0,0,94,5l-.13-.08,0-.22-.08,0,0-.22-.21-.12c-.32-.64-.65-1-1-1.12l-.3-.26V2.84c-.37-.11-.92-.31-1.63-.6l-.17.08-.13-.17-.26,0-.17,0-.3-.21a5.7,5.7,0,0,0-.85-.09l-.26-.13L88,1.85l-.39-.2c-.08.28-.2.24-.34-.1a7.29,7.29,0,0,1-1.71,0l-.69.26,0,.26.07.09a9.12,9.12,0,0,1,0,1.31l.06.17a2.25,2.25,0,0,0-.17,1.09l.07,0,.19.44,0,0A3.7,3.7,0,0,1,85,6.24a8.16,8.16,0,0,0-.13,1.12v2.76l-.21.64.21.35v.3c0,.14,0,.95,0,2.41V14l-.06,1.25-.15.26,0,.3.74,0,1.41-.08v0a4.12,4.12,0,0,0,.86,0h0a11.1,11.1,0,0,0,1.72-.43l0,.05c.25-.09.61-.23,1.07-.43a2.92,2.92,0,0,0,1.59-.78h.13a11.62,11.62,0,0,1,1.6-1.33l.3-.65.08,0a2.82,2.82,0,0,1,.43-1l0-.17.3-.31v-.25a1.71,1.71,0,0,0,.22-.87,7.46,7.46,0,0,0-.26-1.42A2.69,2.69,0,0,1,94.73,6.72Zm3.62,1.7L98,7.77v-.3l-.08-.09a3.78,3.78,0,0,0-.18-1l-.12,0V6.1l-.22-.22,0-.38L96.92,5V4.87l-.3-.26,0-.22-.29-.33-.17,0L96,3.8a12,12,0,0,0-3-1.91h-.26l-.17-.17h-.25l-.13-.17-.38.22-.29-.22-.13.13.56.26.08.17c1,.46,2,1.66,3.19,3.62a3,3,0,0,0,.35,1.16v.17l.08.22c0,.11,0,.64.13,1.59a10,10,0,0,1-.14,1.89l0,0-.09.22A11,11,0,0,1,93.48,14l-.13,0-.43.3-.08.26-.18,0-.17.17L92,14.9l-.3.38,0,.05c.34-.09.86-.26,1.55-.52h.09a22.08,22.08,0,0,0,2.24-1.24l.08-.22.17-.08-.08-.09c.08-.29.46-.59,1.12-.9V12a4.23,4.23,0,0,0,.9-1.33V10.6A21.45,21.45,0,0,0,98.35,8.42ZM99,24.8l-.08-.22,0-.3-.17-.21v-.35a6.56,6.56,0,0,1-.38-1.59,2.29,2.29,0,0,0-.68-1.42l-.08-.52a8.44,8.44,0,0,1-.8-1l-.26,0v0c0-.38-.3-.68-.9-.91L95.51,18,95,17.82a6.43,6.43,0,0,0-.86-.6H93.7L93.18,17l0-.18a1.61,1.61,0,0,1-1.25-.17h-.13l0,.26.3.13h.05a26,26,0,0,1,2.28,1.25v.17L95,19a4,4,0,0,0,.82,1.2v.26l.22.47h0v.22a15.67,15.67,0,0,1,.48,1.51h0l.13,1.42,0,0,.13.65-.13.21,0,.86h0l-.17.65,0,.3a4.35,4.35,0,0,0-.3,1h0l-.13.21,0,.22-.22.47a2,2,0,0,1-.38,1l0,0L94.6,31v.13l-1.38,1.28-.12,0a4.46,4.46,0,0,1-1.34.9l0,.25h.13a6.21,6.21,0,0,1,1.89-.32,2.91,2.91,0,0,1,.69-.37l.09-.08h.21l.3-.3.3,0a3.35,3.35,0,0,0,.87-.82l.21-.09a2.66,2.66,0,0,1,.56-.69l-.09-.08.22-.22,0-.17.6-.52.26-.56v-.08l.43-.91-.08-.26c.08-.43.26-1.07.51-1.93A2.13,2.13,0,0,1,99,24.8Z"/><path class="cls-1" d="M141.71,1l-.09.25a7.22,7.22,0,0,1-1.93.18,9.53,9.53,0,0,1-1.94,0l-.22.13V7.52a20,20,0,0,0,0,2.5,2.92,2.92,0,0,0-.21,1.3,3.1,3.1,0,0,0,.21,1.3l-.1.13c0,3.45,0,5.46-.11,6a2.54,2.54,0,0,1,0,1l.09.17-.09,1,.21.35a11.15,11.15,0,0,0-.12,3.24l-.18.35.05.26.08.08c-.17.78-.33,1.56-.47,2.34a7.74,7.74,0,0,0-.25,2.2,16.85,16.85,0,0,1-1,1.8c-.22.27-.71.78-1.48,1.53l-.25.09-.09.08-.34.13-.09.13-.77.35h-.08l-1.2.51-.3-.13-.77.39-.21,0-.21.17-.3,0c-1.43,0-3.11.16-5,.39h-.25q-.18.12-.3,0h-1.8l-.17-.18-.26.18-.59-.26-.13,0-.56-.08a.83.83,0,0,1-.85-.2,3.23,3.23,0,0,1-2-.37h-.3a4.8,4.8,0,0,1-3.08-2.32,7.35,7.35,0,0,1-1-3.83,6.15,6.15,0,0,0-.3-1.51,5.8,5.8,0,0,1,0-2.67,8.36,8.36,0,0,1-.12-2.06l-.05-.18v-.69c0-.48,0-1.33,0-2.54v-3a10.09,10.09,0,0,0-.18-2.28v-.82a7.64,7.64,0,0,1,.18-1.33l-.18-.17.18-.22-.18-.13a5.9,5.9,0,0,0,0-2.11,9,9,0,0,0,.18-2.67v-3a9.11,9.11,0,0,1,.17-1.16l-.22-.09H109.2L109,1.39l-.09-.18,0-.43.26-.22h1.11l.18.13a11,11,0,0,1,2.32.09l.35-.22a7.83,7.83,0,0,1,1.29.17A9.12,9.12,0,0,1,117,.43c.55,0,1.67,0,3.36.13a31.76,31.76,0,0,0,3.4,0,7.68,7.68,0,0,1,1.77,0l.64-.13.3.08.13.55-.17.23H126c-.5,0-1.24,0-2.21,0l-2.68.39a5.17,5.17,0,0,0,0,2.07l-.09.13c0,1,0,2.38-.08,4.31l.21.21a1.5,1.5,0,0,0-.21,1l.21.17-.21.17v.82c0,.35,0,.87,0,1.58s0,1.23,0,1.57a7.73,7.73,0,0,0,.09,1.21,5.92,5.92,0,0,0,0,1.72l-.06.13.09.73a4,4,0,0,0-.07,1.38l-.06.18.06.21.07.05a5.46,5.46,0,0,1,0,1.07c-.06.61-.08,1-.08,1.12v2a9.39,9.39,0,0,0,0,1.33,1.63,1.63,0,0,0-.22.95l.26.52a5.05,5.05,0,0,0-.22,2l-.12.18.22.08a1.49,1.49,0,0,0,.08,1.51v.17l-.05.26q0,1,2.07,2.46a12.74,12.74,0,0,0,1.85,0l.22.13h.64l.17-.08a9.08,9.08,0,0,0,2.33,0,5.79,5.79,0,0,0,2.2-.52c.88,0,2-.68,3.44-2l0-.21.13-.09a3.66,3.66,0,0,1,.48-.78c.17-.54.4-1.37.68-2.46l-.08-.21.17-2-.09-.17a17.59,17.59,0,0,1,.22-2.25l-.09-.17a12.5,12.5,0,0,0,0-2.46,5.46,5.46,0,0,0,.13-1.9q0-1.82,0-2.16v-.6l.17-.52-.17-.56.13-.35-.13-.17V12.9a19.63,19.63,0,0,1,.21-2.54l0-.18,0-.3a2,2,0,0,1-.21-1,7.3,7.3,0,0,1,.13-1.16,8.84,8.84,0,0,0,.13-1.17,3.86,3.86,0,0,0-.2-1.34,5.58,5.58,0,0,0-.06-2.46V2l-.09-.39L135,1.46H134a4.34,4.34,0,0,0-.73,0h-2.43l-.21-.25L130.6.78l.17-.22,2.16.26a7.1,7.1,0,0,0,2.15-.13l.34.13.13,0,.31,0a1,1,0,0,1,1.07,0,29.33,29.33,0,0,1,3.75-.09L141,.56h.3ZM119.45,33.84q-3-2.58-3-4.91a2.63,2.63,0,0,1,.22-1.07,3,3,0,0,1,0-1.73,5,5,0,0,1,0-2.24,1.17,1.17,0,0,1-.09-.9,11.49,11.49,0,0,1,0-2.88l-.09-.18V15.2l.13-.39-.13-.39a6.12,6.12,0,0,1,.07-.86,3.33,3.33,0,0,1,.06-1.55l-.13-.13.13-.26-.13-.21V9a14.85,14.85,0,0,1,0-2.33,16,16,0,0,0,.11-2.32l.11-.26,0-.73,0-.09,0-.22.09-.13a10.38,10.38,0,0,0,0-1.16,10.66,10.66,0,0,0-2,0,1.44,1.44,0,0,0-1-.26l-.08.09a15.1,15.1,0,0,1-.09,2.38c0,.08,0,1.11,0,3.07-.06,1.81-.1,2.94-.13,3.37l.13.13-.13.39,0,.13a6.69,6.69,0,0,0,.08,1.94l-.17,1.17.17.34-.13.09c0,.43.07,1.93.07,4.5l.06.08c0,.55,0,1.23,0,2V25l.22.34-.22.13a18,18,0,0,0,.09,3.42c.18,1.7.54,2.68,1.09,2.94A2.85,2.85,0,0,0,116.09,33a16.83,16.83,0,0,1,2.88.9Zm10.33-.52h-.12v0A.15.15,0,0,0,129.78,33.32Z"/><path class="cls-1" d="M163.73,34.55l0,.5-.12.12h-7.93a3.6,3.6,0,0,0-1.81,0l-.21-.08-.22.12a23.13,23.13,0,0,0-3.4-.12l0,.12a4.18,4.18,0,0,0-1.59-.08l-.22-.13-.08-.17v-.26L148,34.4v-.26l.21-.13a19.84,19.84,0,0,0,2.55-.08h.6l.26-.26a8.93,8.93,0,0,1,0-1.64l-.1-.26,0-.26.06-.17a23.49,23.49,0,0,0-.08-4.44,1.13,1.13,0,0,0,.17-.69,11.07,11.07,0,0,0-.09-1.12c0-.52-.08-.89-.08-1.12v-.56a4.86,4.86,0,0,1,0-1.34V20.65l.06-.26a12.1,12.1,0,0,1,0-3.45l-.08-.17a5.33,5.33,0,0,1,0-1l-.08-.18q.26-4.1-.18-5.13a8.52,8.52,0,0,0,0-2V4.7a13.69,13.69,0,0,0,0-3.11L151,1.38l-.3,0a20.89,20.89,0,0,0-2.8-.09l-.22-.08-.08-.17V.6l.21-.17h3.36l.26.13a4.88,4.88,0,0,1,1.63-.13,2.58,2.58,0,0,0,1.12.13h1.16a4.85,4.85,0,0,1,1.55.09,7.08,7.08,0,0,0,1.47.13,1.77,1.77,0,0,1,.6,0l.26-.05a9.57,9.57,0,0,0,3.57.17L163,1l.08.56-.08.17a7.71,7.71,0,0,1-2,0l-.13.05-.21-.09-.94.09-.08.21a10.46,10.46,0,0,1,0,1.85,1.79,1.79,0,0,1,0,1.08,7.56,7.56,0,0,1,0,3.61l-.07-.08-.06.08.26.35a3.7,3.7,0,0,0,0,2.67l-.06.64-.11.18v2.79a6.58,6.58,0,0,1,0,1.43,11,11,0,0,0,0,1.42,23.09,23.09,0,0,0,0,3v.08a5.43,5.43,0,0,1,.17,1.55c0,.26-.06,1.15-.17,2.67a16.27,16.27,0,0,0,0,2.46v1.42a6.38,6.38,0,0,0,0,2.75,7.24,7.24,0,0,0,0,1.81l.13.17A3.75,3.75,0,0,0,161,34l.22.09.31-.13H162a5.45,5.45,0,0,0,1,0l.56.16Zm-8.36-3.25.09-.13-.09-.39a5.2,5.2,0,0,0,0-1.29l-.09-.18.13-1-.09-.13,0-3.15.17-.13-.08-.34,0-.39a3.39,3.39,0,0,1-.18-1.64,4.49,4.49,0,0,0-.08-1.59c0-.49,0-1.12,0-1.9V16.94c.06-1.06.06-2.69,0-4.87a6.8,6.8,0,0,0,0-2.54,2.43,2.43,0,0,0,0-1.47V7.54a18.66,18.66,0,0,1,0-2.63V4.65l.17-.17-.17-.34V2.2l.22-.48V1.64L155,1.55a2.78,2.78,0,0,1-1.27,0l-.3,0-.14,0a2,2,0,0,1-1-.13l-.22.13a5,5,0,0,0,0,1.76V13.91c0,.4,0,1,.11,1.8s.1,1.41.1,1.81a6.31,6.31,0,0,1-.08,1.08l.08.3a6.81,6.81,0,0,0,.09,1.38l-.17.69.13.18a14.42,14.42,0,0,0,0,4.31v3.07a8.51,8.51,0,0,0,0,2.5v.56a6.37,6.37,0,0,1,0,1.08,6.17,6.17,0,0,0,0,1.08l.35.18c.31,0,.78,0,1.39-.09s1.09-.09,1.4-.09A4.5,4.5,0,0,0,155.37,31.3Zm3.84-22.56-.13-.13L159,8.7l.13.08A.12.12,0,0,0,159.21,8.74Z"/><path class="cls-1" d="M168.48,15.08a1.28,1.28,0,0,1-.61,1.72l-.23,0-.13.21.36.44.11.29.1,0,.34.71.37.24v.13l-.21.12h-.29l-.34-.23a2.81,2.81,0,0,0-1.3-1.88l-.57.08,0,1.33.16.21.44,0,.1.13,0,.18a2.89,2.89,0,0,1-1.52.08l-.18-.13,0-.18.36-.11.11-.18c.05-1.11.07-2.23.05-3.34l-.23-.24h-.21l-.08-.18.08-.07,1.3,0A1.74,1.74,0,0,1,168.48,15.08Zm-2.43,0,0,1.22.23.16.36,0,.94-.1.24-.23.15-.36a.84.84,0,0,0-.67-1l-.52,0-.58,0Z"/><path class="cls-1" d="M170.22,13.74l.69,1.75a5.57,5.57,0,0,1-.69,4.08l-1.07,1-1.31.57a4,4,0,0,1-4.49-1.86l-.52-1.95V15.8a3.85,3.85,0,0,1,3.47-3.71A4.09,4.09,0,0,1,170.22,13.74Zm-6.24,2a4.65,4.65,0,0,0,1.36,4.38l1.24.31a2.65,2.65,0,0,0,2.79-1.6l.52-1.81a3.91,3.91,0,0,0-2.1-4l-1.21-.06A3.12,3.12,0,0,0,164,15.7Z"/></g></g></svg>